<?xml version="1.0" ?><!-- Uploaded to: SVG Repo, www.svgrepo.com, Generator: SVG Repo Mixer Tools -->
<svg width="800px" height="800px" viewBox="0 0 24 24" fill="none" xmlns="http://www.w3.org/2000/svg"><path d="M17.5 4.8419C15.9763 4.33714 14.1455 4 12 4C9.85451 4 8.02369 4.33714 6.5 4.8419M17.5 4.8419C20.5215 5.84282 22.3352 7.50285 23 8.5L20.5 11L17.5 9V4.8419ZM6.5 4.8419C3.47852 5.84282 1.66477 7.50285 1 8.5L3.5 11L6.5 9V4.8419Z" stroke="#000000" stroke-linecap="round" stroke-linejoin="round" stroke-width="2"/><path d="M10 7V10M10 10L4.58579 15.4142C4.21071 15.7893 4 16.298 4 16.8284V18C4 19.1046 4.89543 20 6 20H18C19.1046 20 20 19.1046 20 18V16.8284C20 16.298 19.7893 15.7893 19.4142 15.4142L14 10M10 10H14M14 10V7" stroke="#000000" stroke-linecap="round" stroke-linejoin="round" stroke-width="2"/><circle cx="12" cy="15" r="2" stroke="#000000" stroke-linecap="round" stroke-linejoin="round" stroke-width="2"/></svg>